<svg xmlns="http://www.w3.org/2000/svg" xml:space="preserve" xmlns:xlink="http://www.w3.org/1999/xlink" style="max-width: 100%;height: auto;" width="150" height="150" viewBox="0 0 990 990">
<rect width="990" height="990" fill="#6a6354" x="0" y="0" />
<g fill="#ffffff">
<g transform="translate(220,44) scale(3.7766666666667)"><rect width="6" height="6"/></g>
<g transform="translate(242,44) scale(3.7766666666667)"><rect width="6" height="6"/></g>
<g transform="translate(286,44) scale(3.7766666666667)"><rect width="6" height="6"/></g>
<g transform="translate(352,44) scale(3.7766666666667)"><rect width="6" height="6"/></g>
<g transform="translate(374,44) scale(3.7766666666667)"><rect width="6" height="6"/></g>
<g transform="translate(418,44) scale(3.7766666666667)"><rect width="6" height="6"/></g>
<g transform="translate(484,44) scale(3.7766666666667)"><rect width="6" height="6"/></g>
<g transform="translate(528,44) scale(3.7766666666667)"><rect width="6" height="6"/></g>
<g transform="translate(660,44) scale(3.7766666666667)"><rect width="6" height="6"/></g>
<g transform="translate(682,44) scale(3.7766666666667)"><rect width="6" height="6"/></g>
<g transform="translate(704,44) scale(3.7766666666667)"><rect width="6" height="6"/></g>
<g transform="translate(726,44) scale(3.7766666666667)"><rect width="6" height="6"/></g>
<g transform="translate(748,44) scale(3.7766666666667)"><rect width="6" height="6"/></g>
<g transform="translate(220,66) scale(3.7766666666667)"><rect width="6" height="6"/></g>
<g transform="translate(264,66) scale(3.7766666666667)"><rect width="6" height="6"/></g>
<g transform="translate(352,66) scale(3.7766666666667)"><rect width="6" height="6"/></g>
<g transform="translate(396,66) scale(3.7766666666667)"><rect width="6" height="6"/></g>
<g transform="translate(418,66) scale(3.7766666666667)"><rect width="6" height="6"/></g>
<g transform="translate(440,66) scale(3.7766666666667)"><rect width="6" height="6"/></g>
<g transform="translate(506,66) scale(3.7766666666667)"><rect width="6" height="6"/></g>
<g transform="translate(572,66) scale(3.7766666666667)"><rect width="6" height="6"/></g>
<g transform="translate(638,66) scale(3.7766666666667)"><rect width="6" height="6"/></g>
<g transform="translate(660,66) scale(3.7766666666667)"><rect width="6" height="6"/></g>
<g transform="translate(682,66) scale(3.7766666666667)"><rect width="6" height="6"/></g>
<g transform="translate(220,88) scale(3.7766666666667)"><rect width="6" height="6"/></g>
<g transform="translate(286,88) scale(3.7766666666667)"><rect width="6" height="6"/></g>
<g transform="translate(330,88) scale(3.7766666666667)"><rect width="6" height="6"/></g>
<g transform="translate(374,88) scale(3.7766666666667)"><rect width="6" height="6"/></g>
<g transform="translate(506,88) scale(3.7766666666667)"><rect width="6" height="6"/></g>
<g transform="translate(528,88) scale(3.7766666666667)"><rect width="6" height="6"/></g>
<g transform="translate(616,88) scale(3.7766666666667)"><rect width="6" height="6"/></g>
<g transform="translate(638,88) scale(3.7766666666667)"><rect width="6" height="6"/></g>
<g transform="translate(660,88) scale(3.7766666666667)"><rect width="6" height="6"/></g>
<g transform="translate(682,88) scale(3.7766666666667)"><rect width="6" height="6"/></g>
<g transform="translate(704,88) scale(3.7766666666667)"><rect width="6" height="6"/></g>
<g transform="translate(726,88) scale(3.7766666666667)"><rect width="6" height="6"/></g>
<g transform="translate(748,88) scale(3.7766666666667)"><rect width="6" height="6"/></g>
<g transform="translate(264,110) scale(3.7766666666667)"><rect width="6" height="6"/></g>
<g transform="translate(286,110) scale(3.7766666666667)"><rect width="6" height="6"/></g>
<g transform="translate(330,110) scale(3.7766666666667)"><rect width="6" height="6"/></g>
<g transform="translate(352,110) scale(3.7766666666667)"><rect width="6" height="6"/></g>
<g transform="translate(374,110) scale(3.7766666666667)"><rect width="6" height="6"/></g>
<g transform="translate(462,110) scale(3.7766666666667)"><rect width="6" height="6"/></g>
<g transform="translate(506,110) scale(3.7766666666667)"><rect width="6" height="6"/></g>
<g transform="translate(528,110) scale(3.7766666666667)"><rect width="6" height="6"/></g>
<g transform="translate(572,110) scale(3.7766666666667)"><rect width="6" height="6"/></g>
<g transform="translate(638,110) scale(3.7766666666667)"><rect width="6" height="6"/></g>
<g transform="translate(242,132) scale(3.7766666666667)"><rect width="6" height="6"/></g>
<g transform="translate(308,132) scale(3.7766666666667)"><rect width="6" height="6"/></g>
<g transform="translate(352,132) scale(3.7766666666667)"><rect width="6" height="6"/></g>
<g transform="translate(374,132) scale(3.7766666666667)"><rect width="6" height="6"/></g>
<g transform="translate(462,132) scale(3.7766666666667)"><rect width="6" height="6"/></g>
<g transform="translate(484,132) scale(3.7766666666667)"><rect width="6" height="6"/></g>
<g transform="translate(550,132) scale(3.7766666666667)"><rect width="6" height="6"/></g>
<g transform="translate(572,132) scale(3.7766666666667)"><rect width="6" height="6"/></g>
<g transform="translate(594,132) scale(3.7766666666667)"><rect width="6" height="6"/></g>
<g transform="translate(616,132) scale(3.7766666666667)"><rect width="6" height="6"/></g>
<g transform="translate(660,132) scale(3.7766666666667)"><rect width="6" height="6"/></g>
<g transform="translate(704,132) scale(3.7766666666667)"><rect width="6" height="6"/></g>
<g transform="translate(726,132) scale(3.7766666666667)"><rect width="6" height="6"/></g>
<g transform="translate(748,132) scale(3.7766666666667)"><rect width="6" height="6"/></g>
<g transform="translate(220,154) scale(3.7766666666667)"><rect width="6" height="6"/></g>
<g transform="translate(242,154) scale(3.7766666666667)"><rect width="6" height="6"/></g>
<g transform="translate(286,154) scale(3.7766666666667)"><rect width="6" height="6"/></g>
<g transform="translate(330,154) scale(3.7766666666667)"><rect width="6" height="6"/></g>
<g transform="translate(352,154) scale(3.7766666666667)"><rect width="6" height="6"/></g>
<g transform="translate(396,154) scale(3.7766666666667)"><rect width="6" height="6"/></g>
<g transform="translate(418,154) scale(3.7766666666667)"><rect width="6" height="6"/></g>
<g transform="translate(440,154) scale(3.7766666666667)"><rect width="6" height="6"/></g>
<g transform="translate(528,154) scale(3.7766666666667)"><rect width="6" height="6"/></g>
<g transform="translate(594,154) scale(3.7766666666667)"><rect width="6" height="6"/></g>
<g transform="translate(638,154) scale(3.7766666666667)"><rect width="6" height="6"/></g>
<g transform="translate(682,154) scale(3.7766666666667)"><rect width="6" height="6"/></g>
<g transform="translate(748,154) scale(3.7766666666667)"><rect width="6" height="6"/></g>
<g transform="translate(220,176) scale(3.7766666666667)"><rect width="6" height="6"/></g>
<g transform="translate(264,176) scale(3.7766666666667)"><rect width="6" height="6"/></g>
<g transform="translate(308,176) scale(3.7766666666667)"><rect width="6" height="6"/></g>
<g transform="translate(352,176) scale(3.7766666666667)"><rect width="6" height="6"/></g>
<g transform="translate(396,176) scale(3.7766666666667)"><rect width="6" height="6"/></g>
<g transform="translate(440,176) scale(3.7766666666667)"><rect width="6" height="6"/></g>
<g transform="translate(484,176) scale(3.7766666666667)"><rect width="6" height="6"/></g>
<g transform="translate(528,176) scale(3.7766666666667)"><rect width="6" height="6"/></g>
<g transform="translate(572,176) scale(3.7766666666667)"><rect width="6" height="6"/></g>
<g transform="translate(616,176) scale(3.7766666666667)"><rect width="6" height="6"/></g>
<g transform="translate(660,176) scale(3.7766666666667)"><rect width="6" height="6"/></g>
<g transform="translate(704,176) scale(3.7766666666667)"><rect width="6" height="6"/></g>
<g transform="translate(748,176) scale(3.7766666666667)"><rect width="6" height="6"/></g>
<g transform="translate(220,198) scale(3.7766666666667)"><rect width="6" height="6"/></g>
<g transform="translate(242,198) scale(3.7766666666667)"><rect width="6" height="6"/></g>
<g transform="translate(286,198) scale(3.7766666666667)"><rect width="6" height="6"/></g>
<g transform="translate(352,198) scale(3.7766666666667)"><rect width="6" height="6"/></g>
<g transform="translate(396,198) scale(3.7766666666667)"><rect width="6" height="6"/></g>
<g transform="translate(418,198) scale(3.7766666666667)"><rect width="6" height="6"/></g>
<g transform="translate(440,198) scale(3.7766666666667)"><rect width="6" height="6"/></g>
<g transform="translate(528,198) scale(3.7766666666667)"><rect width="6" height="6"/></g>
<g transform="translate(572,198) scale(3.7766666666667)"><rect width="6" height="6"/></g>
<g transform="translate(616,198) scale(3.7766666666667)"><rect width="6" height="6"/></g>
<g transform="translate(726,198) scale(3.7766666666667)"><rect width="6" height="6"/></g>
<g transform="translate(88,220) scale(3.7766666666667)"><rect width="6" height="6"/></g>
<g transform="translate(110,220) scale(3.7766666666667)"><rect width="6" height="6"/></g>
<g transform="translate(132,220) scale(3.7766666666667)"><rect width="6" height="6"/></g>
<g transform="translate(176,220) scale(3.7766666666667)"><rect width="6" height="6"/></g>
<g transform="translate(220,220) scale(3.7766666666667)"><rect width="6" height="6"/></g>
<g transform="translate(242,220) scale(3.7766666666667)"><rect width="6" height="6"/></g>
<g transform="translate(286,220) scale(3.7766666666667)"><rect width="6" height="6"/></g>
<g transform="translate(352,220) scale(3.7766666666667)"><rect width="6" height="6"/></g>
<g transform="translate(418,220) scale(3.7766666666667)"><rect width="6" height="6"/></g>
<g transform="translate(550,220) scale(3.7766666666667)"><rect width="6" height="6"/></g>
<g transform="translate(638,220) scale(3.7766666666667)"><rect width="6" height="6"/></g>
<g transform="translate(682,220) scale(3.7766666666667)"><rect width="6" height="6"/></g>
<g transform="translate(748,220) scale(3.7766666666667)"><rect width="6" height="6"/></g>
<g transform="translate(770,220) scale(3.7766666666667)"><rect width="6" height="6"/></g>
<g transform="translate(792,220) scale(3.7766666666667)"><rect width="6" height="6"/></g>
<g transform="translate(814,220) scale(3.7766666666667)"><rect width="6" height="6"/></g>
<g transform="translate(880,220) scale(3.7766666666667)"><rect width="6" height="6"/></g>
<g transform="translate(902,220) scale(3.7766666666667)"><rect width="6" height="6"/></g>
<g transform="translate(924,220) scale(3.7766666666667)"><rect width="6" height="6"/></g>
<g transform="translate(44,242) scale(3.7766666666667)"><rect width="6" height="6"/></g>
<g transform="translate(66,242) scale(3.7766666666667)"><rect width="6" height="6"/></g>
<g transform="translate(110,242) scale(3.7766666666667)"><rect width="6" height="6"/></g>
<g transform="translate(132,242) scale(3.7766666666667)"><rect width="6" height="6"/></g>
<g transform="translate(220,242) scale(3.7766666666667)"><rect width="6" height="6"/></g>
<g transform="translate(242,242) scale(3.7766666666667)"><rect width="6" height="6"/></g>
<g transform="translate(264,242) scale(3.7766666666667)"><rect width="6" height="6"/></g>
<g transform="translate(330,242) scale(3.7766666666667)"><rect width="6" height="6"/></g>
<g transform="translate(374,242) scale(3.7766666666667)"><rect width="6" height="6"/></g>
<g transform="translate(396,242) scale(3.7766666666667)"><rect width="6" height="6"/></g>
<g transform="translate(418,242) scale(3.7766666666667)"><rect width="6" height="6"/></g>
<g transform="translate(440,242) scale(3.7766666666667)"><rect width="6" height="6"/></g>
<g transform="translate(462,242) scale(3.7766666666667)"><rect width="6" height="6"/></g>
<g transform="translate(484,242) scale(3.7766666666667)"><rect width="6" height="6"/></g>
<g transform="translate(594,242) scale(3.7766666666667)"><rect width="6" height="6"/></g>
<g transform="translate(660,242) scale(3.7766666666667)"><rect width="6" height="6"/></g>
<g transform="translate(682,242) scale(3.7766666666667)"><rect width="6" height="6"/></g>
<g transform="translate(726,242) scale(3.7766666666667)"><rect width="6" height="6"/></g>
<g transform="translate(748,242) scale(3.7766666666667)"><rect width="6" height="6"/></g>
<g transform="translate(770,242) scale(3.7766666666667)"><rect width="6" height="6"/></g>
<g transform="translate(792,242) scale(3.7766666666667)"><rect width="6" height="6"/></g>
<g transform="translate(814,242) scale(3.7766666666667)"><rect width="6" height="6"/></g>
<g transform="translate(836,242) scale(3.7766666666667)"><rect width="6" height="6"/></g>
<g transform="translate(880,242) scale(3.7766666666667)"><rect width="6" height="6"/></g>
<g transform="translate(924,242) scale(3.7766666666667)"><rect width="6" height="6"/></g>
<g transform="translate(110,264) scale(3.7766666666667)"><rect width="6" height="6"/></g>
<g transform="translate(154,264) scale(3.7766666666667)"><rect width="6" height="6"/></g>
<g transform="translate(176,264) scale(3.7766666666667)"><rect width="6" height="6"/></g>
<g transform="translate(198,264) scale(3.7766666666667)"><rect width="6" height="6"/></g>
<g transform="translate(220,264) scale(3.7766666666667)"><rect width="6" height="6"/></g>
<g transform="translate(264,264) scale(3.7766666666667)"><rect width="6" height="6"/></g>
<g transform="translate(286,264) scale(3.7766666666667)"><rect width="6" height="6"/></g>
<g transform="translate(308,264) scale(3.7766666666667)"><rect width="6" height="6"/></g>
<g transform="translate(330,264) scale(3.7766666666667)"><rect width="6" height="6"/></g>
<g transform="translate(396,264) scale(3.7766666666667)"><rect width="6" height="6"/></g>
<g transform="translate(418,264) scale(3.7766666666667)"><rect width="6" height="6"/></g>
<g transform="translate(440,264) scale(3.7766666666667)"><rect width="6" height="6"/></g>
<g transform="translate(638,264) scale(3.7766666666667)"><rect width="6" height="6"/></g>
<g transform="translate(660,264) scale(3.7766666666667)"><rect width="6" height="6"/></g>
<g transform="translate(682,264) scale(3.7766666666667)"><rect width="6" height="6"/></g>
<g transform="translate(748,264) scale(3.7766666666667)"><rect width="6" height="6"/></g>
<g transform="translate(792,264) scale(3.7766666666667)"><rect width="6" height="6"/></g>
<g transform="translate(814,264) scale(3.7766666666667)"><rect width="6" height="6"/></g>
<g transform="translate(88,286) scale(3.7766666666667)"><rect width="6" height="6"/></g>
<g transform="translate(198,286) scale(3.7766666666667)"><rect width="6" height="6"/></g>
<g transform="translate(242,286) scale(3.7766666666667)"><rect width="6" height="6"/></g>
<g transform="translate(264,286) scale(3.7766666666667)"><rect width="6" height="6"/></g>
<g transform="translate(308,286) scale(3.7766666666667)"><rect width="6" height="6"/></g>
<g transform="translate(374,286) scale(3.7766666666667)"><rect width="6" height="6"/></g>
<g transform="translate(396,286) scale(3.7766666666667)"><rect width="6" height="6"/></g>
<g transform="translate(440,286) scale(3.7766666666667)"><rect width="6" height="6"/></g>
<g transform="translate(506,286) scale(3.7766666666667)"><rect width="6" height="6"/></g>
<g transform="translate(550,286) scale(3.7766666666667)"><rect width="6" height="6"/></g>
<g transform="translate(638,286) scale(3.7766666666667)"><rect width="6" height="6"/></g>
<g transform="translate(726,286) scale(3.7766666666667)"><rect width="6" height="6"/></g>
<g transform="translate(748,286) scale(3.7766666666667)"><rect width="6" height="6"/></g>
<g transform="translate(770,286) scale(3.7766666666667)"><rect width="6" height="6"/></g>
<g transform="translate(792,286) scale(3.7766666666667)"><rect width="6" height="6"/></g>
<g transform="translate(814,286) scale(3.7766666666667)"><rect width="6" height="6"/></g>
<g transform="translate(858,286) scale(3.7766666666667)"><rect width="6" height="6"/></g>
<g transform="translate(902,286) scale(3.7766666666667)"><rect width="6" height="6"/></g>
<g transform="translate(44,308) scale(3.7766666666667)"><rect width="6" height="6"/></g>
<g transform="translate(88,308) scale(3.7766666666667)"><rect width="6" height="6"/></g>
<g transform="translate(132,308) scale(3.7766666666667)"><rect width="6" height="6"/></g>
<g transform="translate(154,308) scale(3.7766666666667)"><rect width="6" height="6"/></g>
<g transform="translate(176,308) scale(3.7766666666667)"><rect width="6" height="6"/></g>
<g transform="translate(264,308) scale(3.7766666666667)"><rect width="6" height="6"/></g>
<g transform="translate(286,308) scale(3.7766666666667)"><rect width="6" height="6"/></g>
<g transform="translate(330,308) scale(3.7766666666667)"><rect width="6" height="6"/></g>
<g transform="translate(352,308) scale(3.7766666666667)"><rect width="6" height="6"/></g>
<g transform="translate(374,308) scale(3.7766666666667)"><rect width="6" height="6"/></g>
<g transform="translate(396,308) scale(3.7766666666667)"><rect width="6" height="6"/></g>
<g transform="translate(418,308) scale(3.7766666666667)"><rect width="6" height="6"/></g>
<g transform="translate(440,308) scale(3.7766666666667)"><rect width="6" height="6"/></g>
<g transform="translate(462,308) scale(3.7766666666667)"><rect width="6" height="6"/></g>
<g transform="translate(484,308) scale(3.7766666666667)"><rect width="6" height="6"/></g>
<g transform="translate(506,308) scale(3.7766666666667)"><rect width="6" height="6"/></g>
<g transform="translate(528,308) scale(3.7766666666667)"><rect width="6" height="6"/></g>
<g transform="translate(594,308) scale(3.7766666666667)"><rect width="6" height="6"/></g>
<g transform="translate(616,308) scale(3.7766666666667)"><rect width="6" height="6"/></g>
<g transform="translate(682,308) scale(3.7766666666667)"><rect width="6" height="6"/></g>
<g transform="translate(726,308) scale(3.7766666666667)"><rect width="6" height="6"/></g>
<g transform="translate(748,308) scale(3.7766666666667)"><rect width="6" height="6"/></g>
<g transform="translate(792,308) scale(3.7766666666667)"><rect width="6" height="6"/></g>
<g transform="translate(858,308) scale(3.7766666666667)"><rect width="6" height="6"/></g>
<g transform="translate(880,308) scale(3.7766666666667)"><rect width="6" height="6"/></g>
<g transform="translate(44,330) scale(3.7766666666667)"><rect width="6" height="6"/></g>
<g transform="translate(154,330) scale(3.7766666666667)"><rect width="6" height="6"/></g>
<g transform="translate(198,330) scale(3.7766666666667)"><rect width="6" height="6"/></g>
<g transform="translate(264,330) scale(3.7766666666667)"><rect width="6" height="6"/></g>
<g transform="translate(286,330) scale(3.7766666666667)"><rect width="6" height="6"/></g>
<g transform="translate(352,330) scale(3.7766666666667)"><rect width="6" height="6"/></g>
<g transform="translate(418,330) scale(3.7766666666667)"><rect width="6" height="6"/></g>
<g transform="translate(440,330) scale(3.7766666666667)"><rect width="6" height="6"/></g>
<g transform="translate(594,330) scale(3.7766666666667)"><rect width="6" height="6"/></g>
<g transform="translate(638,330) scale(3.7766666666667)"><rect width="6" height="6"/></g>
<g transform="translate(660,330) scale(3.7766666666667)"><rect width="6" height="6"/></g>
<g transform="translate(704,330) scale(3.7766666666667)"><rect width="6" height="6"/></g>
<g transform="translate(770,330) scale(3.7766666666667)"><rect width="6" height="6"/></g>
<g transform="translate(814,330) scale(3.7766666666667)"><rect width="6" height="6"/></g>
<g transform="translate(836,330) scale(3.7766666666667)"><rect width="6" height="6"/></g>
<g transform="translate(858,330) scale(3.7766666666667)"><rect width="6" height="6"/></g>
<g transform="translate(902,330) scale(3.7766666666667)"><rect width="6" height="6"/></g>
<g transform="translate(924,330) scale(3.7766666666667)"><rect width="6" height="6"/></g>
<g transform="translate(44,352) scale(3.7766666666667)"><rect width="6" height="6"/></g>
<g transform="translate(66,352) scale(3.7766666666667)"><rect width="6" height="6"/></g>
<g transform="translate(132,352) scale(3.7766666666667)"><rect width="6" height="6"/></g>
<g transform="translate(176,352) scale(3.7766666666667)"><rect width="6" height="6"/></g>
<g transform="translate(198,352) scale(3.7766666666667)"><rect width="6" height="6"/></g>
<g transform="translate(220,352) scale(3.7766666666667)"><rect width="6" height="6"/></g>
<g transform="translate(242,352) scale(3.7766666666667)"><rect width="6" height="6"/></g>
<g transform="translate(264,352) scale(3.7766666666667)"><rect width="6" height="6"/></g>
<g transform="translate(286,352) scale(3.7766666666667)"><rect width="6" height="6"/></g>
<g transform="translate(330,352) scale(3.7766666666667)"><rect width="6" height="6"/></g>
<g transform="translate(418,352) scale(3.7766666666667)"><rect width="6" height="6"/></g>
<g transform="translate(506,352) scale(3.7766666666667)"><rect width="6" height="6"/></g>
<g transform="translate(528,352) scale(3.7766666666667)"><rect width="6" height="6"/></g>
<g transform="translate(550,352) scale(3.7766666666667)"><rect width="6" height="6"/></g>
<g transform="translate(594,352) scale(3.7766666666667)"><rect width="6" height="6"/></g>
<g transform="translate(682,352) scale(3.7766666666667)"><rect width="6" height="6"/></g>
<g transform="translate(748,352) scale(3.7766666666667)"><rect width="6" height="6"/></g>
<g transform="translate(770,352) scale(3.7766666666667)"><rect width="6" height="6"/></g>
<g transform="translate(44,374) scale(3.7766666666667)"><rect width="6" height="6"/></g>
<g transform="translate(66,374) scale(3.7766666666667)"><rect width="6" height="6"/></g>
<g transform="translate(88,374) scale(3.7766666666667)"><rect width="6" height="6"/></g>
<g transform="translate(198,374) scale(3.7766666666667)"><rect width="6" height="6"/></g>
<g transform="translate(242,374) scale(3.7766666666667)"><rect width="6" height="6"/></g>
<g transform="translate(286,374) scale(3.7766666666667)"><rect width="6" height="6"/></g>
<g transform="translate(374,374) scale(3.7766666666667)"><rect width="6" height="6"/></g>
<g transform="translate(440,374) scale(3.7766666666667)"><rect width="6" height="6"/></g>
<g transform="translate(484,374) scale(3.7766666666667)"><rect width="6" height="6"/></g>
<g transform="translate(572,374) scale(3.7766666666667)"><rect width="6" height="6"/></g>
<g transform="translate(660,374) scale(3.7766666666667)"><rect width="6" height="6"/></g>
<g transform="translate(704,374) scale(3.7766666666667)"><rect width="6" height="6"/></g>
<g transform="translate(792,374) scale(3.7766666666667)"><rect width="6" height="6"/></g>
<g transform="translate(836,374) scale(3.7766666666667)"><rect width="6" height="6"/></g>
<g transform="translate(858,374) scale(3.7766666666667)"><rect width="6" height="6"/></g>
<g transform="translate(924,374) scale(3.7766666666667)"><rect width="6" height="6"/></g>
<g transform="translate(66,396) scale(3.7766666666667)"><rect width="6" height="6"/></g>
<g transform="translate(154,396) scale(3.7766666666667)"><rect width="6" height="6"/></g>
<g transform="translate(176,396) scale(3.7766666666667)"><rect width="6" height="6"/></g>
<g transform="translate(220,396) scale(3.7766666666667)"><rect width="6" height="6"/></g>
<g transform="translate(264,396) scale(3.7766666666667)"><rect width="6" height="6"/></g>
<g transform="translate(308,396) scale(3.7766666666667)"><rect width="6" height="6"/></g>
<g transform="translate(374,396) scale(3.7766666666667)"><rect width="6" height="6"/></g>
<g transform="translate(418,396) scale(3.7766666666667)"><rect width="6" height="6"/></g>
<g transform="translate(440,396) scale(3.7766666666667)"><rect width="6" height="6"/></g>
<g transform="translate(462,396) scale(3.7766666666667)"><rect width="6" height="6"/></g>
<g transform="translate(528,396) scale(3.7766666666667)"><rect width="6" height="6"/></g>
<g transform="translate(550,396) scale(3.7766666666667)"><rect width="6" height="6"/></g>
<g transform="translate(572,396) scale(3.7766666666667)"><rect width="6" height="6"/></g>
<g transform="translate(594,396) scale(3.7766666666667)"><rect width="6" height="6"/></g>
<g transform="translate(660,396) scale(3.7766666666667)"><rect width="6" height="6"/></g>
<g transform="translate(682,396) scale(3.7766666666667)"><rect width="6" height="6"/></g>
<g transform="translate(770,396) scale(3.7766666666667)"><rect width="6" height="6"/></g>
<g transform="translate(814,396) scale(3.7766666666667)"><rect width="6" height="6"/></g>
<g transform="translate(880,396) scale(3.7766666666667)"><rect width="6" height="6"/></g>
<g transform="translate(902,396) scale(3.7766666666667)"><rect width="6" height="6"/></g>
<g transform="translate(66,418) scale(3.7766666666667)"><rect width="6" height="6"/></g>
<g transform="translate(88,418) scale(3.7766666666667)"><rect width="6" height="6"/></g>
<g transform="translate(110,418) scale(3.7766666666667)"><rect width="6" height="6"/></g>
<g transform="translate(132,418) scale(3.7766666666667)"><rect width="6" height="6"/></g>
<g transform="translate(154,418) scale(3.7766666666667)"><rect width="6" height="6"/></g>
<g transform="translate(220,418) scale(3.7766666666667)"><rect width="6" height="6"/></g>
<g transform="translate(264,418) scale(3.7766666666667)"><rect width="6" height="6"/></g>
<g transform="translate(330,418) scale(3.7766666666667)"><rect width="6" height="6"/></g>
<g transform="translate(374,418) scale(3.7766666666667)"><rect width="6" height="6"/></g>
<g transform="translate(418,418) scale(3.7766666666667)"><rect width="6" height="6"/></g>
<g transform="translate(440,418) scale(3.7766666666667)"><rect width="6" height="6"/></g>
<g transform="translate(484,418) scale(3.7766666666667)"><rect width="6" height="6"/></g>
<g transform="translate(572,418) scale(3.7766666666667)"><rect width="6" height="6"/></g>
<g transform="translate(594,418) scale(3.7766666666667)"><rect width="6" height="6"/></g>
<g transform="translate(660,418) scale(3.7766666666667)"><rect width="6" height="6"/></g>
<g transform="translate(704,418) scale(3.7766666666667)"><rect width="6" height="6"/></g>
<g transform="translate(726,418) scale(3.7766666666667)"><rect width="6" height="6"/></g>
<g transform="translate(748,418) scale(3.7766666666667)"><rect width="6" height="6"/></g>
<g transform="translate(792,418) scale(3.7766666666667)"><rect width="6" height="6"/></g>
<g transform="translate(814,418) scale(3.7766666666667)"><rect width="6" height="6"/></g>
<g transform="translate(836,418) scale(3.7766666666667)"><rect width="6" height="6"/></g>
<g transform="translate(858,418) scale(3.7766666666667)"><rect width="6" height="6"/></g>
<g transform="translate(924,418) scale(3.7766666666667)"><rect width="6" height="6"/></g>
<g transform="translate(66,440) scale(3.7766666666667)"><rect width="6" height="6"/></g>
<g transform="translate(110,440) scale(3.7766666666667)"><rect width="6" height="6"/></g>
<g transform="translate(132,440) scale(3.7766666666667)"><rect width="6" height="6"/></g>
<g transform="translate(176,440) scale(3.7766666666667)"><rect width="6" height="6"/></g>
<g transform="translate(220,440) scale(3.7766666666667)"><rect width="6" height="6"/></g>
<g transform="translate(242,440) scale(3.7766666666667)"><rect width="6" height="6"/></g>
<g transform="translate(264,440) scale(3.7766666666667)"><rect width="6" height="6"/></g>
<g transform="translate(352,440) scale(3.7766666666667)"><rect width="6" height="6"/></g>
<g transform="translate(374,440) scale(3.7766666666667)"><rect width="6" height="6"/></g>
<g transform="translate(440,440) scale(3.7766666666667)"><rect width="6" height="6"/></g>
<g transform="translate(462,440) scale(3.7766666666667)"><rect width="6" height="6"/></g>
<g transform="translate(484,440) scale(3.7766666666667)"><rect width="6" height="6"/></g>
<g transform="translate(506,440) scale(3.7766666666667)"><rect width="6" height="6"/></g>
<g transform="translate(550,440) scale(3.7766666666667)"><rect width="6" height="6"/></g>
<g transform="translate(594,440) scale(3.7766666666667)"><rect width="6" height="6"/></g>
<g transform="translate(638,440) scale(3.7766666666667)"><rect width="6" height="6"/></g>
<g transform="translate(660,440) scale(3.7766666666667)"><rect width="6" height="6"/></g>
<g transform="translate(704,440) scale(3.7766666666667)"><rect width="6" height="6"/></g>
<g transform="translate(748,440) scale(3.7766666666667)"><rect width="6" height="6"/></g>
<g transform="translate(770,440) scale(3.7766666666667)"><rect width="6" height="6"/></g>
<g transform="translate(836,440) scale(3.7766666666667)"><rect width="6" height="6"/></g>
<g transform="translate(858,440) scale(3.7766666666667)"><rect width="6" height="6"/></g>
<g transform="translate(88,462) scale(3.7766666666667)"><rect width="6" height="6"/></g>
<g transform="translate(110,462) scale(3.7766666666667)"><rect width="6" height="6"/></g>
<g transform="translate(198,462) scale(3.7766666666667)"><rect width="6" height="6"/></g>
<g transform="translate(220,462) scale(3.7766666666667)"><rect width="6" height="6"/></g>
<g transform="translate(286,462) scale(3.7766666666667)"><rect width="6" height="6"/></g>
<g transform="translate(308,462) scale(3.7766666666667)"><rect width="6" height="6"/></g>
<g transform="translate(330,462) scale(3.7766666666667)"><rect width="6" height="6"/></g>
<g transform="translate(352,462) scale(3.7766666666667)"><rect width="6" height="6"/></g>
<g transform="translate(528,462) scale(3.7766666666667)"><rect width="6" height="6"/></g>
<g transform="translate(616,462) scale(3.7766666666667)"><rect width="6" height="6"/></g>
<g transform="translate(726,462) scale(3.7766666666667)"><rect width="6" height="6"/></g>
<g transform="translate(748,462) scale(3.7766666666667)"><rect width="6" height="6"/></g>
<g transform="translate(836,462) scale(3.7766666666667)"><rect width="6" height="6"/></g>
<g transform="translate(858,462) scale(3.7766666666667)"><rect width="6" height="6"/></g>
<g transform="translate(924,462) scale(3.7766666666667)"><rect width="6" height="6"/></g>
<g transform="translate(110,484) scale(3.7766666666667)"><rect width="6" height="6"/></g>
<g transform="translate(176,484) scale(3.7766666666667)"><rect width="6" height="6"/></g>
<g transform="translate(198,484) scale(3.7766666666667)"><rect width="6" height="6"/></g>
<g transform="translate(220,484) scale(3.7766666666667)"><rect width="6" height="6"/></g>
<g transform="translate(242,484) scale(3.7766666666667)"><rect width="6" height="6"/></g>
<g transform="translate(264,484) scale(3.7766666666667)"><rect width="6" height="6"/></g>
<g transform="translate(308,484) scale(3.7766666666667)"><rect width="6" height="6"/></g>
<g transform="translate(330,484) scale(3.7766666666667)"><rect width="6" height="6"/></g>
<g transform="translate(418,484) scale(3.7766666666667)"><rect width="6" height="6"/></g>
<g transform="translate(462,484) scale(3.7766666666667)"><rect width="6" height="6"/></g>
<g transform="translate(484,484) scale(3.7766666666667)"><rect width="6" height="6"/></g>
<g transform="translate(550,484) scale(3.7766666666667)"><rect width="6" height="6"/></g>
<g transform="translate(616,484) scale(3.7766666666667)"><rect width="6" height="6"/></g>
<g transform="translate(638,484) scale(3.7766666666667)"><rect width="6" height="6"/></g>
<g transform="translate(660,484) scale(3.7766666666667)"><rect width="6" height="6"/></g>
<g transform="translate(704,484) scale(3.7766666666667)"><rect width="6" height="6"/></g>
<g transform="translate(726,484) scale(3.7766666666667)"><rect width="6" height="6"/></g>
<g transform="translate(836,484) scale(3.7766666666667)"><rect width="6" height="6"/></g>
<g transform="translate(880,484) scale(3.7766666666667)"><rect width="6" height="6"/></g>
<g transform="translate(902,484) scale(3.7766666666667)"><rect width="6" height="6"/></g>
<g transform="translate(44,506) scale(3.7766666666667)"><rect width="6" height="6"/></g>
<g transform="translate(88,506) scale(3.7766666666667)"><rect width="6" height="6"/></g>
<g transform="translate(154,506) scale(3.7766666666667)"><rect width="6" height="6"/></g>
<g transform="translate(220,506) scale(3.7766666666667)"><rect width="6" height="6"/></g>
<g transform="translate(264,506) scale(3.7766666666667)"><rect width="6" height="6"/></g>
<g transform="translate(286,506) scale(3.7766666666667)"><rect width="6" height="6"/></g>
<g transform="translate(308,506) scale(3.7766666666667)"><rect width="6" height="6"/></g>
<g transform="translate(330,506) scale(3.7766666666667)"><rect width="6" height="6"/></g>
<g transform="translate(352,506) scale(3.7766666666667)"><rect width="6" height="6"/></g>
<g transform="translate(374,506) scale(3.7766666666667)"><rect width="6" height="6"/></g>
<g transform="translate(396,506) scale(3.7766666666667)"><rect width="6" height="6"/></g>
<g transform="translate(594,506) scale(3.7766666666667)"><rect width="6" height="6"/></g>
<g transform="translate(616,506) scale(3.7766666666667)"><rect width="6" height="6"/></g>
<g transform="translate(660,506) scale(3.7766666666667)"><rect width="6" height="6"/></g>
<g transform="translate(726,506) scale(3.7766666666667)"><rect width="6" height="6"/></g>
<g transform="translate(748,506) scale(3.7766666666667)"><rect width="6" height="6"/></g>
<g transform="translate(770,506) scale(3.7766666666667)"><rect width="6" height="6"/></g>
<g transform="translate(792,506) scale(3.7766666666667)"><rect width="6" height="6"/></g>
<g transform="translate(836,506) scale(3.7766666666667)"><rect width="6" height="6"/></g>
<g transform="translate(858,506) scale(3.7766666666667)"><rect width="6" height="6"/></g>
<g transform="translate(902,506) scale(3.7766666666667)"><rect width="6" height="6"/></g>
<g transform="translate(924,506) scale(3.7766666666667)"><rect width="6" height="6"/></g>
<g transform="translate(44,528) scale(3.7766666666667)"><rect width="6" height="6"/></g>
<g transform="translate(66,528) scale(3.7766666666667)"><rect width="6" height="6"/></g>
<g transform="translate(88,528) scale(3.7766666666667)"><rect width="6" height="6"/></g>
<g transform="translate(154,528) scale(3.7766666666667)"><rect width="6" height="6"/></g>
<g transform="translate(176,528) scale(3.7766666666667)"><rect width="6" height="6"/></g>
<g transform="translate(220,528) scale(3.7766666666667)"><rect width="6" height="6"/></g>
<g transform="translate(264,528) scale(3.7766666666667)"><rect width="6" height="6"/></g>
<g transform="translate(286,528) scale(3.7766666666667)"><rect width="6" height="6"/></g>
<g transform="translate(308,528) scale(3.7766666666667)"><rect width="6" height="6"/></g>
<g transform="translate(418,528) scale(3.7766666666667)"><rect width="6" height="6"/></g>
<g transform="translate(440,528) scale(3.7766666666667)"><rect width="6" height="6"/></g>
<g transform="translate(528,528) scale(3.7766666666667)"><rect width="6" height="6"/></g>
<g transform="translate(572,528) scale(3.7766666666667)"><rect width="6" height="6"/></g>
<g transform="translate(638,528) scale(3.7766666666667)"><rect width="6" height="6"/></g>
<g transform="translate(660,528) scale(3.7766666666667)"><rect width="6" height="6"/></g>
<g transform="translate(682,528) scale(3.7766666666667)"><rect width="6" height="6"/></g>
<g transform="translate(814,528) scale(3.7766666666667)"><rect width="6" height="6"/></g>
<g transform="translate(836,528) scale(3.7766666666667)"><rect width="6" height="6"/></g>
<g transform="translate(858,528) scale(3.7766666666667)"><rect width="6" height="6"/></g>
<g transform="translate(44,550) scale(3.7766666666667)"><rect width="6" height="6"/></g>
<g transform="translate(66,550) scale(3.7766666666667)"><rect width="6" height="6"/></g>
<g transform="translate(88,550) scale(3.7766666666667)"><rect width="6" height="6"/></g>
<g transform="translate(198,550) scale(3.7766666666667)"><rect width="6" height="6"/></g>
<g transform="translate(308,550) scale(3.7766666666667)"><rect width="6" height="6"/></g>
<g transform="translate(396,550) scale(3.7766666666667)"><rect width="6" height="6"/></g>
<g transform="translate(440,550) scale(3.7766666666667)"><rect width="6" height="6"/></g>
<g transform="translate(550,550) scale(3.7766666666667)"><rect width="6" height="6"/></g>
<g transform="translate(572,550) scale(3.7766666666667)"><rect width="6" height="6"/></g>
<g transform="translate(594,550) scale(3.7766666666667)"><rect width="6" height="6"/></g>
<g transform="translate(616,550) scale(3.7766666666667)"><rect width="6" height="6"/></g>
<g transform="translate(660,550) scale(3.7766666666667)"><rect width="6" height="6"/></g>
<g transform="translate(726,550) scale(3.7766666666667)"><rect width="6" height="6"/></g>
<g transform="translate(748,550) scale(3.7766666666667)"><rect width="6" height="6"/></g>
<g transform="translate(770,550) scale(3.7766666666667)"><rect width="6" height="6"/></g>
<g transform="translate(814,550) scale(3.7766666666667)"><rect width="6" height="6"/></g>
<g transform="translate(836,550) scale(3.7766666666667)"><rect width="6" height="6"/></g>
<g transform="translate(858,550) scale(3.7766666666667)"><rect width="6" height="6"/></g>
<g transform="translate(902,550) scale(3.7766666666667)"><rect width="6" height="6"/></g>
<g transform="translate(88,572) scale(3.7766666666667)"><rect width="6" height="6"/></g>
<g transform="translate(110,572) scale(3.7766666666667)"><rect width="6" height="6"/></g>
<g transform="translate(176,572) scale(3.7766666666667)"><rect width="6" height="6"/></g>
<g transform="translate(220,572) scale(3.7766666666667)"><rect width="6" height="6"/></g>
<g transform="translate(330,572) scale(3.7766666666667)"><rect width="6" height="6"/></g>
<g transform="translate(352,572) scale(3.7766666666667)"><rect width="6" height="6"/></g>
<g transform="translate(374,572) scale(3.7766666666667)"><rect width="6" height="6"/></g>
<g transform="translate(462,572) scale(3.7766666666667)"><rect width="6" height="6"/></g>
<g transform="translate(616,572) scale(3.7766666666667)"><rect width="6" height="6"/></g>
<g transform="translate(638,572) scale(3.7766666666667)"><rect width="6" height="6"/></g>
<g transform="translate(682,572) scale(3.7766666666667)"><rect width="6" height="6"/></g>
<g transform="translate(726,572) scale(3.7766666666667)"><rect width="6" height="6"/></g>
<g transform="translate(858,572) scale(3.7766666666667)"><rect width="6" height="6"/></g>
<g transform="translate(880,572) scale(3.7766666666667)"><rect width="6" height="6"/></g>
<g transform="translate(902,572) scale(3.7766666666667)"><rect width="6" height="6"/></g>
<g transform="translate(44,594) scale(3.7766666666667)"><rect width="6" height="6"/></g>
<g transform="translate(66,594) scale(3.7766666666667)"><rect width="6" height="6"/></g>
<g transform="translate(198,594) scale(3.7766666666667)"><rect width="6" height="6"/></g>
<g transform="translate(242,594) scale(3.7766666666667)"><rect width="6" height="6"/></g>
<g transform="translate(330,594) scale(3.7766666666667)"><rect width="6" height="6"/></g>
<g transform="translate(374,594) scale(3.7766666666667)"><rect width="6" height="6"/></g>
<g transform="translate(396,594) scale(3.7766666666667)"><rect width="6" height="6"/></g>
<g transform="translate(418,594) scale(3.7766666666667)"><rect width="6" height="6"/></g>
<g transform="translate(440,594) scale(3.7766666666667)"><rect width="6" height="6"/></g>
<g transform="translate(484,594) scale(3.7766666666667)"><rect width="6" height="6"/></g>
<g transform="translate(572,594) scale(3.7766666666667)"><rect width="6" height="6"/></g>
<g transform="translate(660,594) scale(3.7766666666667)"><rect width="6" height="6"/></g>
<g transform="translate(682,594) scale(3.7766666666667)"><rect width="6" height="6"/></g>
<g transform="translate(726,594) scale(3.7766666666667)"><rect width="6" height="6"/></g>
<g transform="translate(770,594) scale(3.7766666666667)"><rect width="6" height="6"/></g>
<g transform="translate(792,594) scale(3.7766666666667)"><rect width="6" height="6"/></g>
<g transform="translate(814,594) scale(3.7766666666667)"><rect width="6" height="6"/></g>
<g transform="translate(836,594) scale(3.7766666666667)"><rect width="6" height="6"/></g>
<g transform="translate(858,594) scale(3.7766666666667)"><rect width="6" height="6"/></g>
<g transform="translate(924,594) scale(3.7766666666667)"><rect width="6" height="6"/></g>
<g transform="translate(44,616) scale(3.7766666666667)"><rect width="6" height="6"/></g>
<g transform="translate(66,616) scale(3.7766666666667)"><rect width="6" height="6"/></g>
<g transform="translate(88,616) scale(3.7766666666667)"><rect width="6" height="6"/></g>
<g transform="translate(154,616) scale(3.7766666666667)"><rect width="6" height="6"/></g>
<g transform="translate(176,616) scale(3.7766666666667)"><rect width="6" height="6"/></g>
<g transform="translate(220,616) scale(3.7766666666667)"><rect width="6" height="6"/></g>
<g transform="translate(264,616) scale(3.7766666666667)"><rect width="6" height="6"/></g>
<g transform="translate(286,616) scale(3.7766666666667)"><rect width="6" height="6"/></g>
<g transform="translate(352,616) scale(3.7766666666667)"><rect width="6" height="6"/></g>
<g transform="translate(484,616) scale(3.7766666666667)"><rect width="6" height="6"/></g>
<g transform="translate(528,616) scale(3.7766666666667)"><rect width="6" height="6"/></g>
<g transform="translate(572,616) scale(3.7766666666667)"><rect width="6" height="6"/></g>
<g transform="translate(638,616) scale(3.7766666666667)"><rect width="6" height="6"/></g>
<g transform="translate(748,616) scale(3.7766666666667)"><rect width="6" height="6"/></g>
<g transform="translate(770,616) scale(3.7766666666667)"><rect width="6" height="6"/></g>
<g transform="translate(814,616) scale(3.7766666666667)"><rect width="6" height="6"/></g>
<g transform="translate(66,638) scale(3.7766666666667)"><rect width="6" height="6"/></g>
<g transform="translate(88,638) scale(3.7766666666667)"><rect width="6" height="6"/></g>
<g transform="translate(110,638) scale(3.7766666666667)"><rect width="6" height="6"/></g>
<g transform="translate(132,638) scale(3.7766666666667)"><rect width="6" height="6"/></g>
<g transform="translate(198,638) scale(3.7766666666667)"><rect width="6" height="6"/></g>
<g transform="translate(220,638) scale(3.7766666666667)"><rect width="6" height="6"/></g>
<g transform="translate(286,638) scale(3.7766666666667)"><rect width="6" height="6"/></g>
<g transform="translate(352,638) scale(3.7766666666667)"><rect width="6" height="6"/></g>
<g transform="translate(418,638) scale(3.7766666666667)"><rect width="6" height="6"/></g>
<g transform="translate(484,638) scale(3.7766666666667)"><rect width="6" height="6"/></g>
<g transform="translate(550,638) scale(3.7766666666667)"><rect width="6" height="6"/></g>
<g transform="translate(660,638) scale(3.7766666666667)"><rect width="6" height="6"/></g>
<g transform="translate(726,638) scale(3.7766666666667)"><rect width="6" height="6"/></g>
<g transform="translate(748,638) scale(3.7766666666667)"><rect width="6" height="6"/></g>
<g transform="translate(814,638) scale(3.7766666666667)"><rect width="6" height="6"/></g>
<g transform="translate(858,638) scale(3.7766666666667)"><rect width="6" height="6"/></g>
<g transform="translate(902,638) scale(3.7766666666667)"><rect width="6" height="6"/></g>
<g transform="translate(66,660) scale(3.7766666666667)"><rect width="6" height="6"/></g>
<g transform="translate(110,660) scale(3.7766666666667)"><rect width="6" height="6"/></g>
<g transform="translate(132,660) scale(3.7766666666667)"><rect width="6" height="6"/></g>
<g transform="translate(176,660) scale(3.7766666666667)"><rect width="6" height="6"/></g>
<g transform="translate(242,660) scale(3.7766666666667)"><rect width="6" height="6"/></g>
<g transform="translate(440,660) scale(3.7766666666667)"><rect width="6" height="6"/></g>
<g transform="translate(462,660) scale(3.7766666666667)"><rect width="6" height="6"/></g>
<g transform="translate(506,660) scale(3.7766666666667)"><rect width="6" height="6"/></g>
<g transform="translate(594,660) scale(3.7766666666667)"><rect width="6" height="6"/></g>
<g transform="translate(660,660) scale(3.7766666666667)"><rect width="6" height="6"/></g>
<g transform="translate(682,660) scale(3.7766666666667)"><rect width="6" height="6"/></g>
<g transform="translate(704,660) scale(3.7766666666667)"><rect width="6" height="6"/></g>
<g transform="translate(726,660) scale(3.7766666666667)"><rect width="6" height="6"/></g>
<g transform="translate(770,660) scale(3.7766666666667)"><rect width="6" height="6"/></g>
<g transform="translate(814,660) scale(3.7766666666667)"><rect width="6" height="6"/></g>
<g transform="translate(858,660) scale(3.7766666666667)"><rect width="6" height="6"/></g>
<g transform="translate(880,660) scale(3.7766666666667)"><rect width="6" height="6"/></g>
<g transform="translate(924,660) scale(3.7766666666667)"><rect width="6" height="6"/></g>
<g transform="translate(44,682) scale(3.7766666666667)"><rect width="6" height="6"/></g>
<g transform="translate(66,682) scale(3.7766666666667)"><rect width="6" height="6"/></g>
<g transform="translate(88,682) scale(3.7766666666667)"><rect width="6" height="6"/></g>
<g transform="translate(132,682) scale(3.7766666666667)"><rect width="6" height="6"/></g>
<g transform="translate(220,682) scale(3.7766666666667)"><rect width="6" height="6"/></g>
<g transform="translate(374,682) scale(3.7766666666667)"><rect width="6" height="6"/></g>
<g transform="translate(418,682) scale(3.7766666666667)"><rect width="6" height="6"/></g>
<g transform="translate(506,682) scale(3.7766666666667)"><rect width="6" height="6"/></g>
<g transform="translate(528,682) scale(3.7766666666667)"><rect width="6" height="6"/></g>
<g transform="translate(550,682) scale(3.7766666666667)"><rect width="6" height="6"/></g>
<g transform="translate(572,682) scale(3.7766666666667)"><rect width="6" height="6"/></g>
<g transform="translate(638,682) scale(3.7766666666667)"><rect width="6" height="6"/></g>
<g transform="translate(704,682) scale(3.7766666666667)"><rect width="6" height="6"/></g>
<g transform="translate(748,682) scale(3.7766666666667)"><rect width="6" height="6"/></g>
<g transform="translate(814,682) scale(3.7766666666667)"><rect width="6" height="6"/></g>
<g transform="translate(836,682) scale(3.7766666666667)"><rect width="6" height="6"/></g>
<g transform="translate(902,682) scale(3.7766666666667)"><rect width="6" height="6"/></g>
<g transform="translate(924,682) scale(3.7766666666667)"><rect width="6" height="6"/></g>
<g transform="translate(44,704) scale(3.7766666666667)"><rect width="6" height="6"/></g>
<g transform="translate(110,704) scale(3.7766666666667)"><rect width="6" height="6"/></g>
<g transform="translate(132,704) scale(3.7766666666667)"><rect width="6" height="6"/></g>
<g transform="translate(176,704) scale(3.7766666666667)"><rect width="6" height="6"/></g>
<g transform="translate(242,704) scale(3.7766666666667)"><rect width="6" height="6"/></g>
<g transform="translate(286,704) scale(3.7766666666667)"><rect width="6" height="6"/></g>
<g transform="translate(352,704) scale(3.7766666666667)"><rect width="6" height="6"/></g>
<g transform="translate(396,704) scale(3.7766666666667)"><rect width="6" height="6"/></g>
<g transform="translate(462,704) scale(3.7766666666667)"><rect width="6" height="6"/></g>
<g transform="translate(506,704) scale(3.7766666666667)"><rect width="6" height="6"/></g>
<g transform="translate(616,704) scale(3.7766666666667)"><rect width="6" height="6"/></g>
<g transform="translate(638,704) scale(3.7766666666667)"><rect width="6" height="6"/></g>
<g transform="translate(660,704) scale(3.7766666666667)"><rect width="6" height="6"/></g>
<g transform="translate(726,704) scale(3.7766666666667)"><rect width="6" height="6"/></g>
<g transform="translate(770,704) scale(3.7766666666667)"><rect width="6" height="6"/></g>
<g transform="translate(792,704) scale(3.7766666666667)"><rect width="6" height="6"/></g>
<g transform="translate(814,704) scale(3.7766666666667)"><rect width="6" height="6"/></g>
<g transform="translate(858,704) scale(3.7766666666667)"><rect width="6" height="6"/></g>
<g transform="translate(44,726) scale(3.7766666666667)"><rect width="6" height="6"/></g>
<g transform="translate(110,726) scale(3.7766666666667)"><rect width="6" height="6"/></g>
<g transform="translate(198,726) scale(3.7766666666667)"><rect width="6" height="6"/></g>
<g transform="translate(440,726) scale(3.7766666666667)"><rect width="6" height="6"/></g>
<g transform="translate(462,726) scale(3.7766666666667)"><rect width="6" height="6"/></g>
<g transform="translate(594,726) scale(3.7766666666667)"><rect width="6" height="6"/></g>
<g transform="translate(616,726) scale(3.7766666666667)"><rect width="6" height="6"/></g>
<g transform="translate(638,726) scale(3.7766666666667)"><rect width="6" height="6"/></g>
<g transform="translate(726,726) scale(3.7766666666667)"><rect width="6" height="6"/></g>
<g transform="translate(748,726) scale(3.7766666666667)"><rect width="6" height="6"/></g>
<g transform="translate(770,726) scale(3.7766666666667)"><rect width="6" height="6"/></g>
<g transform="translate(792,726) scale(3.7766666666667)"><rect width="6" height="6"/></g>
<g transform="translate(814,726) scale(3.7766666666667)"><rect width="6" height="6"/></g>
<g transform="translate(836,726) scale(3.7766666666667)"><rect width="6" height="6"/></g>
<g transform="translate(858,726) scale(3.7766666666667)"><rect width="6" height="6"/></g>
<g transform="translate(44,748) scale(3.7766666666667)"><rect width="6" height="6"/></g>
<g transform="translate(88,748) scale(3.7766666666667)"><rect width="6" height="6"/></g>
<g transform="translate(132,748) scale(3.7766666666667)"><rect width="6" height="6"/></g>
<g transform="translate(176,748) scale(3.7766666666667)"><rect width="6" height="6"/></g>
<g transform="translate(198,748) scale(3.7766666666667)"><rect width="6" height="6"/></g>
<g transform="translate(330,748) scale(3.7766666666667)"><rect width="6" height="6"/></g>
<g transform="translate(352,748) scale(3.7766666666667)"><rect width="6" height="6"/></g>
<g transform="translate(418,748) scale(3.7766666666667)"><rect width="6" height="6"/></g>
<g transform="translate(440,748) scale(3.7766666666667)"><rect width="6" height="6"/></g>
<g transform="translate(462,748) scale(3.7766666666667)"><rect width="6" height="6"/></g>
<g transform="translate(484,748) scale(3.7766666666667)"><rect width="6" height="6"/></g>
<g transform="translate(550,748) scale(3.7766666666667)"><rect width="6" height="6"/></g>
<g transform="translate(594,748) scale(3.7766666666667)"><rect width="6" height="6"/></g>
<g transform="translate(638,748) scale(3.7766666666667)"><rect width="6" height="6"/></g>
<g transform="translate(682,748) scale(3.7766666666667)"><rect width="6" height="6"/></g>
<g transform="translate(726,748) scale(3.7766666666667)"><rect width="6" height="6"/></g>
<g transform="translate(748,748) scale(3.7766666666667)"><rect width="6" height="6"/></g>
<g transform="translate(770,748) scale(3.7766666666667)"><rect width="6" height="6"/></g>
<g transform="translate(792,748) scale(3.7766666666667)"><rect width="6" height="6"/></g>
<g transform="translate(814,748) scale(3.7766666666667)"><rect width="6" height="6"/></g>
<g transform="translate(836,748) scale(3.7766666666667)"><rect width="6" height="6"/></g>
<g transform="translate(880,748) scale(3.7766666666667)"><rect width="6" height="6"/></g>
<g transform="translate(902,748) scale(3.7766666666667)"><rect width="6" height="6"/></g>
<g transform="translate(220,770) scale(3.7766666666667)"><rect width="6" height="6"/></g>
<g transform="translate(242,770) scale(3.7766666666667)"><rect width="6" height="6"/></g>
<g transform="translate(286,770) scale(3.7766666666667)"><rect width="6" height="6"/></g>
<g transform="translate(308,770) scale(3.7766666666667)"><rect width="6" height="6"/></g>
<g transform="translate(374,770) scale(3.7766666666667)"><rect width="6" height="6"/></g>
<g transform="translate(396,770) scale(3.7766666666667)"><rect width="6" height="6"/></g>
<g transform="translate(418,770) scale(3.7766666666667)"><rect width="6" height="6"/></g>
<g transform="translate(572,770) scale(3.7766666666667)"><rect width="6" height="6"/></g>
<g transform="translate(660,770) scale(3.7766666666667)"><rect width="6" height="6"/></g>
<g transform="translate(682,770) scale(3.7766666666667)"><rect width="6" height="6"/></g>
<g transform="translate(704,770) scale(3.7766666666667)"><rect width="6" height="6"/></g>
<g transform="translate(748,770) scale(3.7766666666667)"><rect width="6" height="6"/></g>
<g transform="translate(836,770) scale(3.7766666666667)"><rect width="6" height="6"/></g>
<g transform="translate(858,770) scale(3.7766666666667)"><rect width="6" height="6"/></g>
<g transform="translate(924,770) scale(3.7766666666667)"><rect width="6" height="6"/></g>
<g transform="translate(330,792) scale(3.7766666666667)"><rect width="6" height="6"/></g>
<g transform="translate(396,792) scale(3.7766666666667)"><rect width="6" height="6"/></g>
<g transform="translate(418,792) scale(3.7766666666667)"><rect width="6" height="6"/></g>
<g transform="translate(440,792) scale(3.7766666666667)"><rect width="6" height="6"/></g>
<g transform="translate(462,792) scale(3.7766666666667)"><rect width="6" height="6"/></g>
<g transform="translate(484,792) scale(3.7766666666667)"><rect width="6" height="6"/></g>
<g transform="translate(506,792) scale(3.7766666666667)"><rect width="6" height="6"/></g>
<g transform="translate(550,792) scale(3.7766666666667)"><rect width="6" height="6"/></g>
<g transform="translate(572,792) scale(3.7766666666667)"><rect width="6" height="6"/></g>
<g transform="translate(616,792) scale(3.7766666666667)"><rect width="6" height="6"/></g>
<g transform="translate(638,792) scale(3.7766666666667)"><rect width="6" height="6"/></g>
<g transform="translate(660,792) scale(3.7766666666667)"><rect width="6" height="6"/></g>
<g transform="translate(682,792) scale(3.7766666666667)"><rect width="6" height="6"/></g>
<g transform="translate(726,792) scale(3.7766666666667)"><rect width="6" height="6"/></g>
<g transform="translate(748,792) scale(3.7766666666667)"><rect width="6" height="6"/></g>
<g transform="translate(792,792) scale(3.7766666666667)"><rect width="6" height="6"/></g>
<g transform="translate(836,792) scale(3.7766666666667)"><rect width="6" height="6"/></g>
<g transform="translate(880,792) scale(3.7766666666667)"><rect width="6" height="6"/></g>
<g transform="translate(286,814) scale(3.7766666666667)"><rect width="6" height="6"/></g>
<g transform="translate(352,814) scale(3.7766666666667)"><rect width="6" height="6"/></g>
<g transform="translate(374,814) scale(3.7766666666667)"><rect width="6" height="6"/></g>
<g transform="translate(396,814) scale(3.7766666666667)"><rect width="6" height="6"/></g>
<g transform="translate(440,814) scale(3.7766666666667)"><rect width="6" height="6"/></g>
<g transform="translate(528,814) scale(3.7766666666667)"><rect width="6" height="6"/></g>
<g transform="translate(572,814) scale(3.7766666666667)"><rect width="6" height="6"/></g>
<g transform="translate(616,814) scale(3.7766666666667)"><rect width="6" height="6"/></g>
<g transform="translate(638,814) scale(3.7766666666667)"><rect width="6" height="6"/></g>
<g transform="translate(660,814) scale(3.7766666666667)"><rect width="6" height="6"/></g>
<g transform="translate(682,814) scale(3.7766666666667)"><rect width="6" height="6"/></g>
<g transform="translate(704,814) scale(3.7766666666667)"><rect width="6" height="6"/></g>
<g transform="translate(726,814) scale(3.7766666666667)"><rect width="6" height="6"/></g>
<g transform="translate(748,814) scale(3.7766666666667)"><rect width="6" height="6"/></g>
<g transform="translate(836,814) scale(3.7766666666667)"><rect width="6" height="6"/></g>
<g transform="translate(858,814) scale(3.7766666666667)"><rect width="6" height="6"/></g>
<g transform="translate(902,814) scale(3.7766666666667)"><rect width="6" height="6"/></g>
<g transform="translate(924,814) scale(3.7766666666667)"><rect width="6" height="6"/></g>
<g transform="translate(220,836) scale(3.7766666666667)"><rect width="6" height="6"/></g>
<g transform="translate(264,836) scale(3.7766666666667)"><rect width="6" height="6"/></g>
<g transform="translate(308,836) scale(3.7766666666667)"><rect width="6" height="6"/></g>
<g transform="translate(374,836) scale(3.7766666666667)"><rect width="6" height="6"/></g>
<g transform="translate(440,836) scale(3.7766666666667)"><rect width="6" height="6"/></g>
<g transform="translate(484,836) scale(3.7766666666667)"><rect width="6" height="6"/></g>
<g transform="translate(506,836) scale(3.7766666666667)"><rect width="6" height="6"/></g>
<g transform="translate(550,836) scale(3.7766666666667)"><rect width="6" height="6"/></g>
<g transform="translate(572,836) scale(3.7766666666667)"><rect width="6" height="6"/></g>
<g transform="translate(594,836) scale(3.7766666666667)"><rect width="6" height="6"/></g>
<g transform="translate(638,836) scale(3.7766666666667)"><rect width="6" height="6"/></g>
<g transform="translate(748,836) scale(3.7766666666667)"><rect width="6" height="6"/></g>
<g transform="translate(770,836) scale(3.7766666666667)"><rect width="6" height="6"/></g>
<g transform="translate(792,836) scale(3.7766666666667)"><rect width="6" height="6"/></g>
<g transform="translate(814,836) scale(3.7766666666667)"><rect width="6" height="6"/></g>
<g transform="translate(836,836) scale(3.7766666666667)"><rect width="6" height="6"/></g>
<g transform="translate(880,836) scale(3.7766666666667)"><rect width="6" height="6"/></g>
<g transform="translate(924,836) scale(3.7766666666667)"><rect width="6" height="6"/></g>
<g transform="translate(220,858) scale(3.7766666666667)"><rect width="6" height="6"/></g>
<g transform="translate(264,858) scale(3.7766666666667)"><rect width="6" height="6"/></g>
<g transform="translate(330,858) scale(3.7766666666667)"><rect width="6" height="6"/></g>
<g transform="translate(352,858) scale(3.7766666666667)"><rect width="6" height="6"/></g>
<g transform="translate(462,858) scale(3.7766666666667)"><rect width="6" height="6"/></g>
<g transform="translate(528,858) scale(3.7766666666667)"><rect width="6" height="6"/></g>
<g transform="translate(572,858) scale(3.7766666666667)"><rect width="6" height="6"/></g>
<g transform="translate(594,858) scale(3.7766666666667)"><rect width="6" height="6"/></g>
<g transform="translate(616,858) scale(3.7766666666667)"><rect width="6" height="6"/></g>
<g transform="translate(660,858) scale(3.7766666666667)"><rect width="6" height="6"/></g>
<g transform="translate(704,858) scale(3.7766666666667)"><rect width="6" height="6"/></g>
<g transform="translate(726,858) scale(3.7766666666667)"><rect width="6" height="6"/></g>
<g transform="translate(748,858) scale(3.7766666666667)"><rect width="6" height="6"/></g>
<g transform="translate(770,858) scale(3.7766666666667)"><rect width="6" height="6"/></g>
<g transform="translate(814,858) scale(3.7766666666667)"><rect width="6" height="6"/></g>
<g transform="translate(924,858) scale(3.7766666666667)"><rect width="6" height="6"/></g>
<g transform="translate(220,880) scale(3.7766666666667)"><rect width="6" height="6"/></g>
<g transform="translate(308,880) scale(3.7766666666667)"><rect width="6" height="6"/></g>
<g transform="translate(352,880) scale(3.7766666666667)"><rect width="6" height="6"/></g>
<g transform="translate(374,880) scale(3.7766666666667)"><rect width="6" height="6"/></g>
<g transform="translate(396,880) scale(3.7766666666667)"><rect width="6" height="6"/></g>
<g transform="translate(418,880) scale(3.7766666666667)"><rect width="6" height="6"/></g>
<g transform="translate(462,880) scale(3.7766666666667)"><rect width="6" height="6"/></g>
<g transform="translate(506,880) scale(3.7766666666667)"><rect width="6" height="6"/></g>
<g transform="translate(528,880) scale(3.7766666666667)"><rect width="6" height="6"/></g>
<g transform="translate(594,880) scale(3.7766666666667)"><rect width="6" height="6"/></g>
<g transform="translate(616,880) scale(3.7766666666667)"><rect width="6" height="6"/></g>
<g transform="translate(638,880) scale(3.7766666666667)"><rect width="6" height="6"/></g>
<g transform="translate(660,880) scale(3.7766666666667)"><rect width="6" height="6"/></g>
<g transform="translate(682,880) scale(3.7766666666667)"><rect width="6" height="6"/></g>
<g transform="translate(770,880) scale(3.7766666666667)"><rect width="6" height="6"/></g>
<g transform="translate(792,880) scale(3.7766666666667)"><rect width="6" height="6"/></g>
<g transform="translate(814,880) scale(3.7766666666667)"><rect width="6" height="6"/></g>
<g transform="translate(836,880) scale(3.7766666666667)"><rect width="6" height="6"/></g>
<g transform="translate(880,880) scale(3.7766666666667)"><rect width="6" height="6"/></g>
<g transform="translate(902,880) scale(3.7766666666667)"><rect width="6" height="6"/></g>
<g transform="translate(308,902) scale(3.7766666666667)"><rect width="6" height="6"/></g>
<g transform="translate(352,902) scale(3.7766666666667)"><rect width="6" height="6"/></g>
<g transform="translate(396,902) scale(3.7766666666667)"><rect width="6" height="6"/></g>
<g transform="translate(418,902) scale(3.7766666666667)"><rect width="6" height="6"/></g>
<g transform="translate(440,902) scale(3.7766666666667)"><rect width="6" height="6"/></g>
<g transform="translate(462,902) scale(3.7766666666667)"><rect width="6" height="6"/></g>
<g transform="translate(506,902) scale(3.7766666666667)"><rect width="6" height="6"/></g>
<g transform="translate(528,902) scale(3.7766666666667)"><rect width="6" height="6"/></g>
<g transform="translate(550,902) scale(3.7766666666667)"><rect width="6" height="6"/></g>
<g transform="translate(572,902) scale(3.7766666666667)"><rect width="6" height="6"/></g>
<g transform="translate(594,902) scale(3.7766666666667)"><rect width="6" height="6"/></g>
<g transform="translate(616,902) scale(3.7766666666667)"><rect width="6" height="6"/></g>
<g transform="translate(660,902) scale(3.7766666666667)"><rect width="6" height="6"/></g>
<g transform="translate(748,902) scale(3.7766666666667)"><rect width="6" height="6"/></g>
<g transform="translate(792,902) scale(3.7766666666667)"><rect width="6" height="6"/></g>
<g transform="translate(836,902) scale(3.7766666666667)"><rect width="6" height="6"/></g>
<g transform="translate(858,902) scale(3.7766666666667)"><rect width="6" height="6"/></g>
<g transform="translate(902,902) scale(3.7766666666667)"><rect width="6" height="6"/></g>
<g transform="translate(242,924) scale(3.7766666666667)"><rect width="6" height="6"/></g>
<g transform="translate(264,924) scale(3.7766666666667)"><rect width="6" height="6"/></g>
<g transform="translate(286,924) scale(3.7766666666667)"><rect width="6" height="6"/></g>
<g transform="translate(308,924) scale(3.7766666666667)"><rect width="6" height="6"/></g>
<g transform="translate(374,924) scale(3.7766666666667)"><rect width="6" height="6"/></g>
<g transform="translate(418,924) scale(3.7766666666667)"><rect width="6" height="6"/></g>
<g transform="translate(440,924) scale(3.7766666666667)"><rect width="6" height="6"/></g>
<g transform="translate(528,924) scale(3.7766666666667)"><rect width="6" height="6"/></g>
<g transform="translate(616,924) scale(3.7766666666667)"><rect width="6" height="6"/></g>
<g transform="translate(682,924) scale(3.7766666666667)"><rect width="6" height="6"/></g>
<g transform="translate(704,924) scale(3.7766666666667)"><rect width="6" height="6"/></g>
<g transform="translate(814,924) scale(3.7766666666667)"><rect width="6" height="6"/></g>
<g transform="translate(836,924) scale(3.7766666666667)"><rect width="6" height="6"/></g>
<g transform="translate(880,924) scale(3.7766666666667)"><rect width="6" height="6"/></g>
</g><g><g transform="translate(44,44)"  fill="#ffffff"><g transform="scale(11)"><path d="M0,0v14h14V0H0z M12,12H2V2h10V12z"/></g></g>
<g transform="translate(792,44)"  fill="#ffffff"><g transform="scale(11)"><path d="M0,0v14h14V0H0z M12,12H2V2h10V12z"/></g></g>
<g transform="translate(44,792)"  fill="#ffffff"><g transform="scale(11)"><path d="M0,0v14h14V0H0z M12,12H2V2h10V12z"/></g></g>
<g transform="translate(88,88)"  fill="#ffffff"><g transform="scale(11)"><rect width="6" height="6"/></g></g>
<g transform="translate(836,88)"  fill="#ffffff"><g transform="scale(11)"><rect width="6" height="6"/></g></g>
<g transform="translate(88,836)"  fill="#ffffff"><g transform="scale(11)"><rect width="6" height="6"/></g></g></g>
</svg>
